<svg xmlns="http://www.w3.org/2000/svg" viewBox="0 0 266.6 232.59" fill="none" role="img" aria-label="Spiral logo">
  <path d="M 115.14 104.56 C 114.91 104.89, 114.08 105.79, 113.76 106.57 C 113.43 107.35, 113.21 108.28, 113.19 109.23 C 113.18 110.18, 113.32 111.24, 113.68 112.25 C 114.04 113.27, 114.59 114.35, 115.34 115.3 C 116.1 116.26, 117.07 117.22, 118.2 117.99 C 119.33 118.77, 120.68 119.48, 122.13 119.95 C 123.59 120.42, 125.24 120.77, 126.93 120.84 C 128.61 120.91, 130.45 120.79, 132.24 120.38 C 134.03 119.98, 135.91 119.33, 137.66 118.41 C 139.4 117.49, 141.17 116.29, 142.71 114.86 C 144.25 113.43, 145.73 111.71, 146.92 109.81 C 148.1 107.91, 149.13 105.75, 149.81 103.48 C 150.49 101.21, 150.93 98.7, 150.99 96.19 C 151.05 93.67, 150.8 90.99, 150.15 88.39 C 149.51 85.8, 148.51 83.11, 147.13 80.62 C 145.75 78.13, 143.98 75.64, 141.89 73.44 C 139.8 71.25, 137.32 69.16, 134.59 67.44 C 131.86 65.73, 128.76 64.23, 125.53 63.17 C 122.29 62.11, 118.74 61.36, 115.17 61.09 C 111.6 60.81, 107.8 60.93, 104.11 61.54 C 100.42 62.15, 96.6 63.2, 93.04 64.72 C 89.47 66.24, 85.9 68.25, 82.7 70.66 C 79.5 73.07, 76.43 75.97, 73.84 79.18 C 71.25 82.39, 68.93 86.06, 67.17 89.92 C 65.41 93.78, 64.04 98.04, 63.28 102.35 C 62.53 106.66, 62.27 111.27, 62.65 115.78 C 63.02 120.29, 63.97 124.98, 65.53 129.42 C 67.08 133.86, 69.26 138.34, 71.98 142.41 C 74.7 146.49, 78.05 150.44, 81.84 153.87 C 85.62 157.3, 90.01 160.46, 94.69 162.98 C 99.37 165.51, 104.58 167.61, 109.91 169.01 C 115.24 170.42, 121 171.28, 126.69 171.41 C 132.38 171.54, 138.34 171.02, 144.06 169.79 C 149.77 168.56, 155.59 166.62, 160.97 164.04 C 166.36 161.45, 171.66 158.14, 176.36 154.28 C 181.06 150.42, 185.48 145.86, 189.17 140.9 C 192.86 135.94, 196.09 130.35, 198.48 124.54 C 200.88 118.73, 202.65 112.39, 203.54 106.04 C 204.44 99.69, 204.57 92.97, 203.83 86.45 C 203.08 79.92, 201.49 73.21, 199.08 66.9 C 196.67 60.59, 193.37 54.3, 189.35 48.6 C 185.34 42.91, 180.45 37.43, 175.01 32.72 C 169.57 28.02, 163.31 23.74, 156.7 20.35 C 150.1 16.96, 142.8 14.19, 135.38 12.38 C 127.96 10.57, 120.01 9.55, 112.2 9.5 C 104.38 9.45, 96.24 10.31, 88.48 12.1 C 80.72 13.89, 72.87 16.65, 65.64 20.25 C 58.41 23.85, 51.34 28.43, 45.09 33.69 C 38.85 38.95, 33.02 45.15, 28.17 51.82 C 23.33 58.49, 19.14 65.99, 16.04 73.73 C 12.95 81.48, 10.71 89.88, 9.62 98.26 C 8.53 106.64, 8.45 115.48, 9.5 124.03 C 10.55 132.57, 12.72 141.33, 15.93 149.53 C 19.14 157.74, 23.51 165.89, 28.77 173.24 C 34.02 180.59, 40.41 187.62, 47.47 193.66 C 54.53 199.7, 62.62 205.15, 71.13 209.46 C 79.63 213.77, 89.01 217.27, 98.5 219.54 C 107.99 221.81, 118.13 223.06, 128.08 223.09 C 138.03 223.11, 148.35 221.98, 158.18 219.68 C 168 217.39, 177.9 213.86, 187.01 209.3 C 196.13 204.74, 205 198.95, 212.84 192.32 C 220.67 185.7, 227.96 177.92, 234.01 169.56 C 240.06 161.2, 245.28 151.82, 249.13 142.17 C 252.97 132.52, 255.77 116.73, 257.1 111.64" stroke="currentColor" fill="none" stroke-width="15" stroke-linecap="round" stroke-linejoin="round"/>
</svg>
